<?xml version="1.0" standalone="no"?>
<!DOCTYPE svg PUBLIC "-//W3C//DTD SVG 20010904//EN"
 "http://www.w3.org/TR/2001/REC-SVG-20010904/DTD/svg10.dtd">
<svg version="1.0" xmlns="http://www.w3.org/2000/svg"
 width="40.000000pt" height="40.000000pt" viewBox="0 0 40.000000 40.000000"
 preserveAspectRatio="xMidYMid meet">

<g transform="translate(0.000000,40.000000) scale(0.100000,-0.100000)"
fill="#000000" stroke="none">
<path d="M150 280 c-18 -45 -35 -78 -39 -75 -3 3 -15 30 -26 58 -15 37 -27 53
-43 55 -20 3 -19 -1 17 -90 32 -80 41 -93 63 -96 21 -3 28 3 42 38 20 51 20
60 -1 61 -15 0 -14 2 4 11 12 6 24 22 26 37 4 25 4 25 12 -6 6 -26 13 -33 32
-33 15 0 23 -5 20 -12 -2 -7 10 -32 26 -55 24 -34 37 -43 60 -43 33 0 31 4
-22 63 -23 25 -24 30 -10 40 41 31 46 97 9 117 -10 6 -45 10 -78 10 l-60 0
-32 -80z m134 34 c18 -18 18 -17 10 -38 -4 -10 -18 -16 -35 -16 -25 0 -29 4
-29 28 0 45 24 56 54 26z"/>
<path d="M191 178 c-1 -42 2 -48 19 -48 17 0 20 7 20 48 -1 40 -2 44 -12 27
-11 -19 -11 -19 -19 0 -5 14 -8 5 -8 -27z"/>
</g>
</svg>
